<?xml version="1.0" standalone="no"?><!DOCTYPE svg PUBLIC "-//W3C//DTD SVG 1.1//EN" "http://www.w3.org/Graphics/SVG/1.1/DTD/svg11.dtd"><svg t="1721564545518" class="icon" viewBox="0 0 1024 1024" version="1.1" xmlns="http://www.w3.org/2000/svg" p-id="7485" xmlns:xlink="http://www.w3.org/1999/xlink" width="256" height="256"><path d="M247.58 753a60.3 60.3 0 0 0 60.26 60.26h43.64c-2.07 4.16-2.07 10.39-2.07 16.63v122.56c0 31.17 24.94 58.19 56.11 58.19s56.11-24.94 56.11-58.19V829.84c0-6.24 0-10.4-2.08-16.63h106c-2.08 4.16-2.08 10.39-2.08 16.63v122.61c0 31.17 24.93 58.19 56.11 58.19s56.11-24.94 56.11-58.19V829.84c0-6.24 0-10.4-2.08-16.63h43.64A60.31 60.31 0 0 0 777.51 753V329H247.58z m-97.67-421.92c-29.1 0-54 27-54 58.19v245.22c0 31.17 22.86 58.19 54 58.19 29.09 0 54-24.94 54-58.19V389.27c-2.08-31.18-24.94-58.19-54-58.19z m723.19 0c-29.09 0-54 24.94-54 58.19v245.22c0 31.17 22.86 58.19 54 58.19s54-24.94 54-58.19V389.27c0-31.18-22.86-58.19-54-58.19zM642.43 96.24l10.39-16.62L663.21 63l22.86-35.33c2.08-4.16 2.08-10.39-2.08-12.47s-10.39-2.08-12.47 2.08l-24.94 39.48-10.38 16.63L625.8 90c-33.25-14.54-72.73-20.78-112.22-20.78s-79 8.31-112.22 20.78L391 73.39l-10.42-16.63-24.94-39.48c-2.07-4.16-8.31-6.24-12.47-2.08-4.16 2.08-6.23 8.31-2.07 12.47L364 63l10.4 16.62 10.39 16.62C303.74 133.65 249.7 206.39 249.7 289.51h529.89c-4.16-83.12-58.19-153.78-137.16-193.27zM399.29 212.62c-16.63 0-29.1-12.47-29.1-29.09s12.47-29.1 29.1-29.1 29.09 12.47 29.09 29.1-14.55 29.09-29.09 29.09z m226.51 0c-16.62 0-29.09-12.47-29.09-29.09s12.47-29.1 29.09-29.1 29.1 12.47 29.1 29.1-14.55 29.09-29.1 29.09z m0 0" fill="#64A70E" p-id="7486"></path></svg>