<?xml version="1.0" standalone="no"?><!DOCTYPE svg PUBLIC "-//W3C//DTD SVG 1.1//EN" "http://www.w3.org/Graphics/SVG/1.1/DTD/svg11.dtd"><svg t="1721564489277" class="icon" viewBox="0 0 1024 1024" version="1.1" xmlns="http://www.w3.org/2000/svg" p-id="6499" xmlns:xlink="http://www.w3.org/1999/xlink" width="256" height="256"><path d="M473.581908 64.49937L388.252742 149.828537v191.998125l-85.339167 191.998125-63.999375 149.328542 42.669583 213.337916 384.456246 49.849513L814.908575 640.493745 580.250867 43.159579 473.581908 64.49937z" fill="#FFFFFF" p-id="6500"></path><path d="M836.248367 747.152704h-63.999375l-85.339167-21.329792-21.329792 21.329792 10.379899 64.579369-10.379899 127.418756v63.999375h63.999375L900.247742 896.491245l21.329791-21.339791-85.329166-127.99875zM217.584408 725.822912L174.914825 768.492495 137.885187 780.992373 132.255242 768.492495l-21.339792 21.329792V896.491245L89.585658 939.150829H132.255242l63.999375 21.339791 42.659583 21.329792 85.339167 21.329792h42.659583l28.869718-29.679711-7.529926-34.319664-21.689788-54.369469L324.253367 832.49187l-42.669584-85.339166L260.253992 725.822912l-21.339792-21.329792-21.329792 21.329792zM473.581908 235.157704l-63.999375 42.669583v21.329792L452.252117 341.826662l42.659583 21.329792 85.339167-63.999375v-21.329792l-106.668959-42.669583z" fill="#F5BD0C" p-id="6501"></path><path d="M552.641136 267.177391c3.899962 0.489995 7.809924 0.489995 11.709886-0.239998-3.659964 0.729993-7.809924 0.97999-11.709886 0.489995-2.929971-0.239998-5.609945-0.97999-8.299919-1.949981 2.679974 0.729993 5.609945 1.469986 8.299919 1.709984z" fill="#FFFFFF" p-id="6502"></path><path d="M289.14371 981.780412l-0.979991-0.489995-1.219988-0.489995c-14.149862-5.609945-28.539721-9.999902-42.939581-13.659867 2.439976 7.079931 6.829933 13.179871 12.689877 18.299822 5.369948 4.149959 11.709886 7.079931 18.049823 8.299919 6.589936 1.459986 13.419869 2.189979 20.009805 1.709983 7.319929-0.489995 14.879855-1.459986 22.199783-2.439976-9.509907-2.929971-19.029814-6.589936-27.809728-11.219891z m563.334498-361.816466h-0.239997c-5.859943-32.449683-14.879855-63.919376-27.329733-94.419078-8.289919-22.689778-19.519809-44.159569-33.669672-63.919376-14.149862-18.789817-32.209685-34.639662-45.869552-53.919474-7.319929-9.759905-13.659867-20.979795-21.229792-30.739699-3.169969-6.339938-6.09994-12.689876-9.029912-19.029814-9.029912-20.009805-17.569828-40.499604-28.299724-59.529419-1.709983-2.929971-3.659964-5.859943-5.369947-8.779914-1.219988-18.299821-3.169969-36.599643-4.389958-54.889464 0.97999-36.83964-2.189979-73.67928-9.269909-109.788928-4.639955-17.319831-11.949883-33.669671-21.709788-48.799524-11.21989-18.059824-25.61975-33.419674-42.449585-45.869552C576.060908 10.759895 543.121229 0.03 509.451558 0.03c-24.889757-0.489995-49.529516 5.11995-71.489302 16.34984-23.179774 12.689876-41.95959 32.449683-53.919473 56.109452-10.979893 23.909767-16.589838 49.769514-17.079833 75.879259-0.97999 25.859747 1.459986 51.479497 2.439976 77.339245 1.219988 26.839738 0.489995 53.669476 2.679974 80.509214 0.729993 8.539917 1.709983 17.079833 1.709983 25.859747 0 4.389957-0.239998 8.539917-0.239998 12.929874l-0.489995 0.729993c-11.469888 20.009805-24.399762 39.039619-38.549623 57.089442-9.759905 12.439879-19.759807 24.889757-29.519712 37.079638-12.929874 14.639857-23.909767 30.7397-32.689681 48.059531-5.859943 15.129852-10.489898 30.7397-14.149862 46.349547l-0.489995 1.459986a347.364608 347.364608 0 0 1-20.4898 52.699485c-0.729993 1.709983-1.459986 3.409967-2.199978 4.879953-4.879952 10.2499-10.2499 20.249802-15.609848 30.249704l-6.09994 11.469888c-3.899962 7.069931-7.319929 14.149862-10.2499 21.46979-1.709983 4.639955-3.169969 9.269909-3.899962 13.909865-1.459986 9.759905-0.729993 20.009805 1.949981 29.519711 0.489995 2.439976 1.219988 4.879952 1.949981 7.319929 0.97999 2.439976 1.949981 4.879952 2.929971 7.319928 1.949981 4.389957 3.899962 8.779914 6.099941 13.169872 1.709983 3.169969 3.419967 6.09994 5.11995 9.269909l1.459985 2.199979c0.239998 0.239998 0.239998 0.489995 0.239998 0.729993 0.729993-0.97999 1.219988-2.189979 1.949981-3.409967 2.199979-4.149959 4.389957-7.559926 7.809924-11.709886 0.729993-0.97999 1.949981-1.949981 3.169969-2.679974 0.729993 0 1.459986-0.239998 2.199978-0.239997 0.489995 0 0.97999 0 1.219988 0.239997 2.679974 0.489995 5.11995 1.459986 6.339938 2.439977 7.319929 5.369948 13.659867 12.199881 19.269812 20.979795 17.809826 24.149764 32.209685 46.10955 44.399567 66.609349 3.169969 4.879952 6.09994 9.999902 9.029911 15.129852 8.299919 14.399859 16.829836 29.279714 27.329734 43.429576 4.639955 6.339938 9.759905 12.439879 14.639857 18.539819 4.149959 5.369948 8.539917 10.489898 12.929873 16.349841 7.069931 9.269909 12.439879 19.269812 15.609848 29.519711 3.419967 12.689876 2.189979 25.859747-3.659964 37.329636-1.219988 2.189979-2.439976 4.389957-3.899962 6.339938 9.999902-2.679974 20.009805-4.879952 30.249704-7.079931 2.199979-0.489995 4.149959-0.729993 6.339938-1.219988 15.36985-3.659964 30.979697-5.859943 46.839543-6.589936 3.899962 0.239998 7.809924 0 11.469888-0.239997 10.739895 1.219988 21.709788 1.709983 32.449683 1.219988l3.899962-0.239998c2.929971 0.239998 5.609945 0.489995 8.539917 0.729993 19.029814 0.97999 37.819631 2.929971 56.599447 5.859943 16.589838 2.439976 32.939678 5.609945 49.279519 9.509907 8.289919 2.439976 16.589838 4.639955 25.129754 6.589936 14.149862 3.419967 28.789719 5.859943 43.429576 7.319928-0.97999-0.239998-1.709983-0.489995-2.679974-0.97999l-0.729993-0.489996-0.729993-0.239997c-6.09994-2.189979-11.469888-6.339938-15.369849-11.469888-2.929971-6.09994-4.389957-13.169871-4.14996-20.4898 0.729993-19.519809 2.929971-39.039619 7.319929-59.039424 2.929971-17.319831 6.09994-35.129657 7.809923-53.18948 1.949981-18.789817 2.929971-38.059628 2.929972-57.32944-2.189979 4.879952-4.879952 9.759905-7.559926 14.389859-5.609945 8.049921-11.709886 15.609848-18.299822 22.929776-5.609945 6.589936-11.709886 12.689876-18.049823 18.299822-20.979795 22.199783-45.139559 41.229597-71.489302 56.599447-52.939483 27.329733-115.398873 27.809728-168.828352 1.709983-1.709983-0.729993-3.419967-1.709983-5.11995-2.679974-13.169871-6.829933-25.61975-15.36985-36.83964-25.129754-25.129755-22.199783-44.649564-49.529516-57.579438-80.269216-8.049921-19.279812-13.659867-39.519614-17.079833-60.019414-4.389957-24.639759-5.11995-49.769514-2.439976-74.659271 4.149959-37.329635 13.909864-73.929278 29.279714-108.078945 9.999902-22.449781 21.959786-44.399566 35.619652-64.649368-1.219988-13.169871 0-26.109745 3.659965-38.549624 7.319929-20.249802 17.809826-39.039619 30.989697-55.869454a111.388912 111.388912 0 0 0 18.049824-32.449683c2.189979-11.21989 3.169969-22.929776 2.679973-34.399665 0.239998-4.639955 0.729993-9.269909 1.709984-13.909864 0-0.97999 0.239998-2.189979 0.489995-3.169969 1.219988-5.609945 3.899962-10.979893 7.319928-15.609847 0.97999-1.219988 2.189979-2.439976 3.16997-3.409967-0.489995-0.489995-0.97999-0.729993-1.459986-1.219988 0.489995-1.219988 1.459986-2.439976 2.679974-3.659964 3.659964-4.639955 7.809924-8.539917 12.439878-11.469888l2.929972-1.949981 1.94998-2.679974c8.289919-9.509907 18.789817-16.589838 31.229696-20.979795 5.369948-2.189979 11.21989-3.169969 17.079833-3.169969 4.149959 0 8.539917 0.729993 11.709885 1.459985 4.389957 1.459986 9.029912 3.419967 14.639857 6.589936 2.439976 1.219988 4.639955 2.439976 7.069931 3.899962 3.659964 1.709983 7.069931 3.659964 10.739895 5.609945 13.659867 6.829933 28.059726 11.949883 43.919572 15.859845 0.729993 0 1.459986 0.239998 2.199978 0.489996l1.459986 1.949981c0 0.489995-0.239998 1.219988-0.489995 1.94998-0.489995 2.189979-0.97999 4.389957-1.219988 6.589936 3.169969 1.949981 6.09994 4.149959 8.779914 6.589936 3.899962 3.899962 7.559926 8.539917 10.2499 13.659866 1.219988 1.949981 2.199979 3.899962 3.169969 6.099941 3.419967 7.069931 6.339938 14.639857 9.269909 22.199783 7.809924 18.059824 17.809826 35.129657 25.859748 52.699485 11.469888 24.879757 19.279812 50.989502 23.179773 77.82924 14.879855 15.36985 27.079736 32.939678 36.349645 52.20949 23.669769 57.579438 30.249705 120.768821 19.279812 182.008223-0.239998 4.879952-0.729993 9.759905-1.469986 14.639857-0.97999 8.049921-2.439976 16.099843-4.149959 23.909767 7.079931 0.97999 13.909864 2.439976 20.009805 3.899961 3.419967 0.729993 6.829933 1.949981 10.249899 2.929972 3.419967 1.219988 6.829933 2.199979 9.999903 3.169969 10.739895 3.169969 21.959786 4.639955 33.669671 4.639955 3.899962 0 7.809924 0 11.709886-0.489996l1.709983-0.239997 1.459986-0.239998c10.489898-2.439976 21.709788-4.389957 33.669671-5.369947 0.729993 0 1.709983 0.239998 2.439976 0.239997 0.97999-0.97999 1.709983-2.189979 2.439976-3.169969 3.659964-5.11995 6.339938-10.979893 8.049922-17.079833 0.489995-0.729993 0.729993-1.219988 1.219988-1.949981 7.319929-11.709886 12.439879-24.639759 14.639857-38.299626 3.659964-23.909767 3.169969-48.059531-1.709984-71.7293zM460.172039 226.677786c-0.239998 4.389957-0.729993 8.539917-1.949981 12.689876-1.949981 7.319929-5.859943 14.149862-11.21989 19.51981-3.659964 3.659964-8.299919 6.339938-13.169871 8.049921-4.879952 1.459986-10.2499 1.709983-15.36985 0.489995-2.679974-0.729993-5.369948-1.709983-7.809924-3.169969-0.97999-0.729993-1.949981-1.219988-2.929971-2.189978-1.219988-0.729993-2.439976-1.709983-3.659965-2.929972-3.659964-3.899962-6.829933-8.779914-8.779914-13.909864-3.659964-10.489898-5.609945-21.709788-5.859943-32.689681a92.637095 92.637095 0 0 1 2.189979-36.599642c1.709983-5.859943 5.11995-11.21989 9.519907-15.36985v-0.239998c4.639955-4.149959 10.2499-6.829933 16.589838-7.319928 4.639955-0.239998 9.029912 0.729993 13.419869 2.679974 4.149959 2.199979 7.809924 4.879952 10.979893 8.299919v0.239997c6.589936 6.829933 11.469888 15.129852 14.399859 24.399762 2.679974 9.029912 4.389957 18.539819 4.389957 28.059726 0 3.419967-0.239998 6.829933-0.729993 9.999902z m132.478707 17.079834c-2.439976 5.609945-6.339938 10.739895-11.219891 14.879854-2.199979 1.949981-4.639955 3.419967-7.069931 4.879953-1.219988 0.729993-2.679974 1.219988-3.899962 1.709983-1.949981 0.729993-3.899962 1.219988-6.09994 1.709983-3.899962 0.729993-7.809924 0.729993-11.709886 0.239998-2.679974-0.239998-5.609945-0.97999-8.299919-1.709983-1.219988-0.489995-2.679974-0.97999-3.899962-1.459986-1.219988-0.489995-2.679974-1.219988-3.899961-1.709983-1.459986-0.97999-3.169969-1.949981-4.639955-2.929972-2.929971-2.439976-5.859943-4.879952-8.539917-7.559926-2.199979-2.189979-3.899962-4.389957-5.609945-6.829933-1.459986-1.709983-2.439976-3.419967-3.419967-5.11995-2.199979-3.659964-4.149959-7.319929-5.609945-11.219891-0.729993-1.949981-1.459986-3.899962-2.199978-5.859943-5.369948-13.659867-6.09994-28.789719-1.709984-42.93958 0.97999-2.199979 1.949981-4.389957 2.929972-6.339938 0.97999-1.709983 1.949981-3.419967 3.169969-5.11995 1.219988-1.709983 2.439976-3.419967 3.899962-5.11995a41.489595 41.489595 0 0 1 4.639954-4.639955c1.949981-2.199979 4.389957-3.899962 6.829934-5.609945v0.489995c0.97999-0.489995 1.709983-1.219988 2.679974-1.459986h0.239997c1.219988-0.97999 2.439976-1.709983 3.899962-2.199978 0.489995-0.239998 0.97999-0.729993 1.219988-0.729993 0.489995-0.239998 0.97999-0.489995 1.459986-0.729993 1.949981-0.729993 4.149959-1.219988 6.339938-1.709983h0.239998c3.899962-0.729993 8.049921-0.97999 11.959883-0.239998 3.169969 0.489995 6.339938 1.219988 9.269909 2.439976 1.949981 0.729993 3.899962 1.459986 5.609946 2.679974 0.97999 0.489995 1.709983 0.97999 2.679973 1.459986 2.679974 1.949981 5.369948 3.899962 7.319929 6.09994 2.199979 1.949981 4.149959 4.149959 5.859943 6.589936 0.489995 0.489995 0.97999 0.97999 1.219988 1.459986 1.459986 1.949981 2.929971 4.149959 4.149959 6.589935v0.239998c1.459986 2.679974 2.929971 5.609945 3.899962 8.779914a86.313157 86.313157 0 0 1 4.14996 34.399664c-0.239998 9.029912-2.199979 18.049824-5.859943 26.589741z" fill="#020204" p-id="6503"></path><path d="M548.391178 182.068222c-3.659964 0.229998-7.089931 1.369987-10.179901 3.319968s-5.719944 4.569955-7.779924 7.549926a39.101618 39.101618 0 0 0-6.179939 20.4698c-0.339997 5.379947 0.459996 10.859894 2.169978 16.009844 1.719983 5.14995 4.919952 9.719905 9.029912 13.149871 4.349958 3.549965 9.609906 5.599945 15.209852 5.949942 5.599945 0.229998 11.089892-1.259988 15.669847-4.459956 3.659964-2.629974 6.629935-5.949942 8.689915-9.949903 2.05998-3.889962 3.319968-8.22992 3.889962-12.579877 1.139989-7.779924-0.229998-15.779846-3.659964-22.759778-3.549965-7.089931-9.609906-12.469878-16.929835-15.31985-3.199969-1.259988-6.519936-1.719983-9.949903-1.599985" fill="#020204" p-id="6504"></path><path d="M433.822297 266.937393c-4.879952 1.709983-10.2499 1.709983-15.36985 0.489995 5.11995 1.219988 10.489898 0.97999 15.36985-0.489995z" fill="#FFFFFF" p-id="6505"></path><path d="M402.912599 204.028008c-1.489985 7.659925-1.139989 15.669847 1.259987 23.099774 1.829982 4.919952 4.569955 9.379908 8.22992 13.149872 2.289978 2.519975 4.919952 4.689954 8.009922 6.179939 3.08997 1.599984 6.519936 2.05998 9.949903 1.259988 3.08997-0.799992 5.719944-2.629974 7.659925-5.14995 1.939981-2.519975 3.319968-5.379947 4.229958-8.349918 2.629974-8.919913 2.399977-18.40982-0.459995-27.329733-1.829982-6.519936-5.379947-12.469878-10.409898-16.929835-2.399977-2.05998-5.379947-3.659964-8.459918-4.459957-3.199969-0.799992-6.519936-0.569994-9.609906 0.799993a16.689837 16.689837 0 0 0-7.429927 7.429927 31.859689 31.859689 0 0 0-3.08997 10.179901" fill="#020204" p-id="6506"></path><path d="M597.770696 273.037334c-0.489995-0.729993-1.459986-1.219988-2.189979-1.949981 0-0.239998 0.239998-0.239998 0.239998-0.489996 0-1.459986-0.489995-2.929971-1.459986-4.389957-1.709983-2.679974-4.149959-4.639955-7.069931-5.859942-1.949981-0.729993-3.899962-1.459986-5.859943-1.709984-2.199979-0.97999-4.389957-1.459986-6.589935-1.949981-12.929874-2.929971-25.369752-7.559926-37.329636-13.659866-5.859943-2.929971-11.469888-6.09994-17.569828-9.26991-3.659964-1.949981-7.319929-3.899962-11.219891-5.11995-2.439976-1.219988-4.879952-2.199979-7.319928-2.929971-6.09994-1.709983-12.689876-2.679974-19.029814-2.679974-7.559926 0-15.129852 1.219988-22.199784 3.659964-1.219988 0.239998-2.189979 0.489995-3.409966 0.979991-15.859845 5.609945-30.249705 15.36985-41.229598 28.299723-2.679974 1.709983-5.369948 3.899962-7.809923 6.099941-3.419967 2.929971-6.829933 6.339938-9.759905 9.999902-2.929971 3.419967-5.369948 7.319929-7.069931 11.709886-0.97999 3.419967-1.709983 6.829933-2.199979 10.489897-0.489995 1.219988-0.729993 2.679974-0.729992 3.899962 0 0.729993 0.239998 1.459986 0.489995 1.949981 0.239998 1.219988 0.489995 2.189979 0.97999 2.929972 1.219988 1.709983 2.439976 2.929971 3.899962 3.899961 1.709983 0.97999 3.169969 1.949981 4.639955 2.929972 2.199979 1.459986 4.389957 3.169969 6.589935 4.879952 5.11995 4.389957 9.999902 9.269909 13.909865 14.879855 6.829933 10.739895 15.36985 20.249802 25.129754 28.549721 7.319929 5.11995 16.099843 8.289919 25.129755 9.029912 1.949981 0.239998 4.149959 0.239998 6.09994 0.239998 8.539917 0 17.079833-1.219988 25.129755-3.899962 9.519907-2.679974 18.539819-6.589936 26.839738-11.709886 14.639857-11.709886 30.249705-21.959786 46.599545-30.499702 3.899962-1.459986 7.809924-2.439976 11.469888-4.14996 2.679974-1.219988 5.11995-2.929971 6.589935-5.11995 1.219988-0.729993 1.949981-1.949981 2.439976-2.929971 1.219988-3.659964 1.949981-7.559926 2.189979-11.469888 0.489995-4.149959 1.949981-8.049921 2.439976-12.199881 0.97999-4.149959 0.729993-8.289919-0.729993-12.439878z m-25.859748 21.229792l-0.239997 1.459986v0.489995c-0.729993 0.239998-1.459986 0.489995-2.189979 0.729993l-4.14996 1.219988-1.709983 0.729993-1.459986 0.729993c-17.079833 8.779914-33.669671 19.519809-49.279518 31.959688-6.09994 3.659964-12.689876 6.589936-20.249803 8.779914-5.859943 1.709983-11.709886 2.679974-17.809826 2.679974-1.459986 0-2.929971 0-3.899962-0.239998-4.639955-0.239998-9.029912-1.709983-12.689876-4.149959-7.559926-6.589936-14.149862-14.149862-19.279811-22.199783l-0.489996-0.489996-0.239997-0.729992c-6.339938-8.299919-13.659867-15.859845-22.689779-22.689779-0.489995-0.489995-0.97999-0.729993-1.459985-1.219988 0.489995-1.219988 1.459986-2.439976 2.679973-3.659964 3.659964-4.639955 7.809924-8.539917 12.439879-11.469888l2.929971-1.949981 1.949981-2.679974c8.289919-9.509907 18.789817-16.589838 31.229695-20.979795 5.369948-2.189979 11.21989-3.169969 17.079834-3.169969 4.149959 0 8.539917 0.729993 11.709885 1.459986 4.389957 1.459986 9.029912 3.419967 14.639857 6.589935 2.439976 1.219988 4.639955 2.439976 7.069931 3.899962 3.659964 1.709983 7.069931 3.659964 10.739895 5.609945 13.659867 6.829933 28.059726 11.949883 43.919571 15.859845 0.729993 0 1.459986 0.239998 2.199979 0.489996l1.459986 1.949981c0 0.489995-0.239998 1.219988-0.489996 1.949981-0.489995 2.189979-0.97999 4.389957-1.219988 6.589935-0.239998 0.97999-0.489995 1.709983-0.489995 2.439976zM408.452544 928.840929c-2.929971-9.269909-6.829933-18.049824-11.949883-26.099745-2.439976-4.149959-5.11995-8.299919-8.289919-12.199881-8.539917-11.709886-18.299821-22.449781-26.839738-34.159666-13.169871-18.049824-23.669769-37.569633-35.129657-56.849445-12.689876-21.229793-26.58974-41.95959-41.229597-62.209392-1.459986-1.949981-2.929971-4.149959-4.389957-6.099941-6.339938-9.999902-14.639857-18.789817-24.149764-26.109745-4.879952-3.419967-10.489898-5.859943-16.589838-6.829933-1.949981-0.489995-3.899962-0.729993-5.859943-0.729993-4.149959 0-8.049921 0.729993-11.709886 2.199978-5.369948 2.679974-9.999902 6.09994-13.419869 10.739896-0.97999 1.459986-2.189979 2.679974-2.929971 4.149959-2.439976 3.419967-4.639955 6.829933-6.589936 10.489898-2.679974 5.11995-5.609945 9.999902-9.029912 14.879854-3.409967 4.639955-7.559926 8.779914-12.689876 11.709886-5.369948 2.929971-11.469888 4.639955-17.31983 5.11995-3.169969 0-6.09994 0.239998-9.26991 0.239998-2.929971 0-6.09994-0.239998-9.029912-0.239998-1.459986-0.239998-2.679974-0.239998-4.149959-0.239998-4.639955 0-9.519907 0.489995-14.149862 1.219988-13.169871 1.949981-23.419771 12.439879-25.129755 25.369753-0.97999 6.589936-1.219988 13.169871-0.489995 19.759807 0.729993 14.879855 3.419967 29.519712 4.14996 44.399566 1.219988 14.639857-0.729993 29.759709-5.859943 43.669574-3.419967 8.539917-8.299919 16.099843-11.469888 24.639759-1.459986 4.149959-2.439976 8.539917-2.679974 13.169871 0 4.639955 1.219988 9.269909 3.419967 13.179872 3.169969 4.879952 7.809924 8.779914 13.169871 10.979892 5.369948 2.439976 10.979893 4.149959 16.829836 5.609946 12.689876 3.419967 25.129755 7.809924 37.81963 11.709885 41.229597 12.199881 84.419176 17.319831 124.428785 33.179676 18.789817 9.759905 39.039619 16.099843 60.259412 19.029814h1.709983c12.689876 0 25.129755-3.419967 36.109647-9.999902 11.469888-6.829933 20.739797-16.829836 26.839738-28.549721 1.949981-3.899962 3.659964-8.049921 4.639955-12.199881 4.389957-13.909864 4.639955-28.789719 0.97999-42.939581z m-44.889561 62.699388c-6.829933 4.149959-14.639857 6.339938-23.669769 6.589936-7.809924-1.219988-15.36985-2.929971-22.929776-5.11995-9.509907-2.929971-19.029814-6.589936-27.809728-11.219891l-0.979991-0.489995-1.219988-0.489995c-14.149862-5.609945-28.539721-9.999902-42.939581-13.659867a1009.160145 1009.160145 0 0 0-34.889659-8.049921c-16.829836-3.899962-32.939678-7.559926-48.799523-12.199881-4.879952-1.459986-9.999902-3.169969-14.879855-4.879952-7.809924-2.439976-15.609848-4.879952-24.149764-7.319929-4.879952-1.219988-9.269909-2.439976-12.929874-4.149959-0.97999-0.239998-1.709983-0.97999-1.709983-0.979991 0.239998-1.709983 0.489995-3.419967 1.219988-5.609945 1.219988-3.169969 2.929971-6.589936 4.879952-10.2499 2.199979-4.639955 4.639955-9.029912 6.589936-14.389859 6.09994-17.079833 8.779914-35.86965 7.069931-53.189481-0.239998-8.299919-1.219988-16.589838-2.189979-24.399762-0.729993-6.589936-1.459986-13.419869-1.949981-21.229792-0.489995-4.389957-0.239998-8.779914 0.729993-14.149862 0.239998-2.199979 1.949981-3.899962 4.879952-4.389957 3.659964-0.729993 6.829933-0.97999 9.999903-0.979991h2.679974c3.419967 0.239998 7.069931 0.489995 10.489897 0.489995 3.659964 0 7.069931-0.239998 10.489898-0.489995 9.519907-0.489995 19.029814-3.169969 27.56973-7.559926l0.729993-0.489995 0.489996-0.239998c7.809924-4.639955 14.879855-11.21989 20.009804-18.789816 3.169969-4.639955 5.859943-9.029912 8.539917-13.909864 0.729993-0.97999 1.219988-2.189979 1.949981-3.409967 2.199979-4.149959 4.389957-7.559926 7.809923-11.709886 0.729993-0.97999 1.949981-1.949981 3.169969-2.679974 0.729993 0 1.459986-0.239998 2.199979-0.239997 0.489995 0 0.97999 0 1.219988 0.239997 2.679974 0.489995 5.11995 1.459986 6.339938 2.439977 7.319929 5.369948 13.659867 12.199881 19.269812 20.979795 17.809826 24.149764 32.209685 46.10955 44.399566 66.609349 3.169969 4.879952 6.09994 9.999902 9.029912 15.129852 8.299919 14.399859 16.829836 29.279714 27.329733 43.429576 4.639955 6.339938 9.759905 12.439879 14.639857 18.539819 4.149959 5.369948 8.539917 10.489898 12.929874 16.349841 7.069931 9.269909 12.439879 19.269812 15.609848 29.519711 3.419967 12.689876 2.189979 25.859747-3.659965 37.329636-1.219988 2.189979-2.439976 4.389957-3.899962 6.339938-3.659964 5.11995-8.299919 9.509907-13.659866 12.689876zM938.847365 858.331618a30.911698 30.911698 0 0 0-8.539917-9.26991c-3.169969-2.679974-6.829933-4.879952-10.2499-7.319928-7.559926-4.879952-14.639857-10.489898-21.46979-16.34984-7.069931-5.609945-13.419869-11.709886-19.519809-18.299822-6.09994-6.829933-10.2499-15.129852-12.199881-23.909766-0.729993-5.609945-1.219988-10.979893-1.459986-16.589838-0.239998-6.09994-1.709983-12.199881-3.899962-18.049824-1.459986-3.899962-3.659964-7.319929-6.589936-10.489898-4.149959-3.659964-9.029912-6.339938-14.149861-7.809923-0.489995-0.239998-0.729993-0.239998-1.219988-0.239998-4.639955-1.459986-9.759905-2.199979-14.639857-2.439976a258.427476 258.427476 0 0 0-38.549624 5.859943c-3.169969 0.489995-6.339938 0.489995-9.509907 0.489995-9.029912 0-18.049824-1.219988-26.839738-3.659964-6.829933-1.949981-13.909864-4.389957-20.739797-6.339938-7.319929-1.709983-14.639857-3.169969-22.199784-4.14996-3.899962-0.729993-8.049921-1.219988-11.949883-1.709983-4.389957-0.97999-8.779914-1.459986-13.169871-1.459986-0.489995 0-0.97999 0.239998-1.459986 0.239998H680.24989c-10.739895 0-19.759807 8.049921-20.249802 18.789816-0.729993 5.11995-0.729993 10.489898 0 15.859845 1.709983 25.61975 1.949981 51.479497 0 77.339245-0.239998 5.859943-0.729993 11.709886-1.219988 17.569828-1.949981 17.079833-4.879952 34.399664-7.809924 51.479498-4.389957 20.4898-6.829933 41.479595-7.559926 62.45939-0.489995 9.269909 1.219988 18.539819 4.639955 27.079735 0.97999 2.439976 1.949981 4.879952 3.169969 7.069931 6.829933 9.759905 16.34984 17.079833 27.329733 21.469791 11.949883 5.369948 24.889757 8.049921 37.81963 8.049921 3.899962 0 7.809924-0.239998 11.709886-0.729993 13.659867-2.199979 26.58974-7.809924 37.819631-15.859845 10.739895-8.539917 20.739797-17.809826 30.249704-27.809728a278.883277 278.883277 0 0 1 37.569633-30.249705c20.4898-12.199881 41.719593-23.419771 63.429381-33.419674 12.689876-5.609945 24.399762-13.909864 33.909669-24.149764 4.149959-4.879952 7.559926-10.489898 9.759905-16.34984l0.239997-0.489995c1.459986-5.609945 0.489995-11.469888-2.199978-16.589838z m-26.099745 17.319831c-7.079931 7.319929-15.859845 13.659867-25.859748 18.049823-22.199783 10.2499-44.159569 21.959786-65.629359 34.88966l-0.729993 0.239997-0.489995 0.239998c-14.389859 9.759905-28.299724 20.979795-41.469595 33.669671-8.299919 8.779914-17.569828 17.079833-27.329733 24.889757-8.049921 6.09994-17.569828 9.999902-26.349743 11.469888-2.929971 0.489995-5.609945 0.489995-8.539916 0.489995-8.539917 0-16.829836-1.459986-24.879757-4.879952-0.97999-0.239998-1.709983-0.489995-2.679974-0.97999l-0.729993-0.489996-0.729993-0.239997c-6.09994-2.189979-11.469888-6.339938-15.36985-11.469888-2.929971-6.09994-4.389957-13.169871-4.149959-20.4898 0.729993-19.519809 2.929971-39.039619 7.319928-59.039424 2.929971-17.319831 6.09994-35.129657 7.809924-53.18948 1.949981-18.789817 2.929971-38.059628 2.929971-57.32944 0-14.149862-0.489995-28.299724-1.709983-42.699583-0.239998-2.439976-0.239998-4.879952-0.239998-7.559927 2.189979 0 4.389957 0.239998 6.589936 0.729993l0.97999 0.239998h0.729993c3.659964 0.489995 7.319929 0.97999 10.739895 1.459986 7.079931 0.97999 13.909864 2.439976 20.009805 3.899962 3.419967 0.729993 6.829933 1.949981 10.2499 2.929971 3.419967 1.219988 6.829933 2.199979 9.999902 3.169969 10.739895 3.169969 21.959786 4.639955 33.669671 4.639955 3.899962 0 7.809924 0 11.709886-0.489995l1.709983-0.239998 1.459986-0.239998c10.489898-2.439976 21.709788-4.389957 33.669671-5.369947 0.729993 0 1.709983 0.239998 2.439977 0.239997 1.949981 0.239998 4.149959 0.729993 6.09994 1.459986 1.459986 0.489995 2.679974 0.97999 3.659964 1.709983 0.489995 0.729993 0.97999 1.219988 0.979991 1.709984 1.459986 3.899962 2.439976 7.559926 2.439976 10.739895 0.489995 6.09994 0.97999 12.199881 1.709983 18.299821v1.219988l0.239998 0.979991c2.929971 12.689876 9.029912 24.639759 18.059823 35.129657 7.069931 7.809924 14.639857 14.879855 22.199784 20.739797 7.319929 6.339938 15.129852 12.439879 22.929776 17.809826l3.169969 2.199979c1.949981 1.219988 3.899962 2.439976 6.589935 4.639954 0.239998 0 0.729993 0.489995 0.979991 0.729993-1.219988 1.949981-2.439976 4.149959-4.14996 6.099941z" p-id="6507"></path></svg>