<?xml version="1.0" standalone="no"?><!DOCTYPE svg PUBLIC "-//W3C//DTD SVG 1.1//EN" "http://www.w3.org/Graphics/SVG/1.1/DTD/svg11.dtd"><svg t="1721487255051" class="icon" viewBox="0 0 1024 1024" version="1.1" xmlns="http://www.w3.org/2000/svg" p-id="3116" xmlns:xlink="http://www.w3.org/1999/xlink" width="200" height="200"><path d="M960 432H509.7C494.2 323.5 400.8 240 288 240 164.3 240 64 340.3 64 464s100.3 224 224 224c112.8 0 206.2-83.5 221.7-192H672v176h64V496h64v176h64V496h96v-64zM401.1 577.1C370.9 607.4 330.7 624 288 624s-82.9-16.6-113.1-46.9C144.6 546.9 128 506.7 128 464s16.6-82.9 46.9-113.1C205.1 320.6 245.3 304 288 304s82.9 16.6 113.1 46.9C431.4 381.1 448 421.3 448 464s-16.6 82.9-46.9 113.1z" fill="#8a8a8a" p-id="3117"></path></svg>